<?xml version="1.0" encoding="utf-8"?>
<!-- Generator: Adobe Illustrator 25.0.1, SVG Export Plug-In . SVG Version: 6.00 Build 0)  -->
<svg version="1.1" id="Layer_1" xmlns="http://www.w3.org/2000/svg" xmlns:xlink="http://www.w3.org/1999/xlink" x="0px" y="0px"
	 viewBox="0 0 920 920" style="enable-background:new 0 0 920 920;" xml:space="preserve">
<style type="text/css">
	.st0{fill:#4854ED;stroke:#FFFFFF;stroke-miterlimit:10;}
	.st1{fill:#D4D4F4;}
</style>
<g>
	<circle class="st0" cx="460" cy="460" r="452.1"/>
	<g transform="translate(0.000000,920.000000) scale(0.100000,-0.100000)">
		<path class="st1" d="M5386.6,6867.6c-2090-12-2780-21-2860-37c-475-92-858-434-981-877c-32-116-44-353-24-477
			c68-429,396-802,830-946c176-58,187-59,708-63l482-4v-443c0-244,3-666,7-938l6-495l-403-7c-435-8-440-9-475-62
			c-39-61-14-142,56-176c32-15,161-16,1794-7c1754,9,1907,12,2075,46c392,77,722,328,891,678c75,156,100,260,106,443
			c8,234-25,387-126,579c-112,212-300,401-505,505l-58,29l81,47c230,129,430,358,522,595c55,143,70,220,76,382c4,128,2,165-16,253
			c-101,486-466,843-976,954C6490.6,6869.6,6283.6,6873.6,5386.6,6867.6z M6081.6,6615.6c0-10-924-1498-941-1515c-5-6-9,295-9,752
			v762l448,3c246,1,459,3,475,5C6069.6,6623.6,6081.6,6620.6,6081.6,6615.6z M4861.6,5847.6c0-650-2-764-14-748
			c-32,48-946,1495-946,1500s213,9,678,13l282,2V5847.6z M6606.6,6584.6c167-44,320-134,446-259c118-118,185-227,233-379
			c103-328,8-687-248-929c-127-121-277-204-451-249l-100-26l-510-4c-280-2-563-6-627-7c-65-2-118,1-118,5c0,5,262,430,583,945
			l582,935l65-5C6497.6,6608.6,6562.6,6595.6,6606.6,6584.6z M3533.6,5789.6c2-448,3-872,3-942v-128h-455c-409,0-463,2-535,19
			c-618,144-945,774-681,1311c117,237,319,412,577,498c65,22,149,38,254,51c17,1,211,4,433,5l402,1L3533.6,5789.6z M4290.6,5489.6
			l480-760l-481-3c-265-1-482-1-484,0c-1,2-4,348-6,770c-1,422,0,764,4,760C3806.6,6252.6,4025.6,5907.6,4290.6,5489.6z
			 M6597.6,4459.6c113-28,259-96,348-159c71-51,188-170,235-238c49-73,108-204,132-293c18-64,22-108,22-220s-4-156-22-220
			c-26-98-87-228-145-309c-49-69-169-186-239-235c-122-84-365-172-471-171l-41,1l-585,927l-586,927l166,5c91,3,373,7,626,8l461,2
			L6597.6,4459.6z M4862.6,3867.6c1-335,2-759,3-943l1-335h-525h-525l-5,935c-3,514-4,938-2,942c1,4,239,7,527,8h525L4862.6,3867.6z
			 M5630.6,3372.6c259-412,474-755,477-763c5-13-52-15-485-15h-491v777c0,651,2,775,13,763
			C5152.6,4126.6,5370.6,3783.6,5630.6,3372.6z"/>
	</g>
</g>
</svg>
